<svg xmlns="http://www.w3.org/2000/svg" version="1.1" xmlns:xlink="http://www.w3.org/1999/xlink" xmlns:svgjs="http://svgjs.dev/svgjs" width="1000" height="1000" viewBox="0 0 1000 1000"><rect width="1000" height="1000" fill="#000000"></rect><g transform="matrix(0.7,0,0,0.7,150,281.25)"><svg viewBox="0 0 512 320" data-background-color="#ffffff" preserveAspectRatio="xMidYMid meet" height="625" width="1000" xmlns="http://www.w3.org/2000/svg" xmlns:xlink="http://www.w3.org/1999/xlink"><g id="tight-bounds" transform="matrix(1,0,0,1,0,0)"><svg viewBox="0 0 512 320" height="320" width="512"><g><svg></svg></g><g><svg viewBox="0 0 512 320" height="320" width="512"><g><path xmlns="http://www.w3.org/2000/svg" d="M96 320l0-320 320 0 0 320z" fill="#ffffff" fill-rule="nonzero" stroke="none" stroke-width="1" stroke-linecap="butt" stroke-linejoin="miter" stroke-miterlimit="10" stroke-dasharray="" stroke-dashoffset="0" font-family="none" font-weight="none" font-size="none" text-anchor="none" style="mix-blend-mode: normal" data-fill-palette-color="tertiary"></path></g><g transform="matrix(1,0,0,1,140.8,107.70273074603026)"><svg viewBox="0 0 230.4 104.59453850793949" height="104.59453850793949" width="230.4"><g><svg viewBox="0 0 230.4 104.59453850793949" height="104.59453850793949" width="230.4"><g><svg viewBox="0 0 230.4 104.59453850793949" height="104.59453850793949" width="230.4"><g><svg viewBox="0 0 230.4 104.59453850793949" height="104.59453850793949" width="230.4"><g id="textblocktransform"><svg viewBox="0 0 230.4 104.59453850793949" height="104.59453850793949" width="230.4" id="textblock"><g><svg viewBox="0 0 230.4 67.40117351215423" height="67.40117351215423" width="230.4"><g transform="matrix(1,0,0,1,0,0)"><svg width="230.4" viewBox="4.300000190734863 -34.900001525878906 119.28999328613281 34.900001525878906" height="67.40117351215423" data-palette-color="#ffffff"><path d="M31 0L31-26.7 30.75-26.7 28-21.05 20.35-7.1 12.7-21.05 9.95-26.7 9.7-26.7 9.7 0 4.3 0 4.3-34.9 11-34.9 20.35-17.15 20.65-17.15 30-34.9 36.4-34.9 36.4 0 31 0ZM50.65 0L45 0 45-34.9 66.8-34.9 66.8-29.9 50.65-29.9 50.65-20.2 65-20.2 65-15.2 50.65-15.2 50.65 0ZM98.1 0L92.2 0 89.05-9.45 76-9.45 72.95 0 67.2 0 79.1-34.9 86.2-34.9 98.1 0ZM87.65-14.3L82.65-29.7 82.4-29.7 77.35-14.3 87.65-14.3ZM123.59-29.9L113.19-29.9 113.19 0 107.54 0 107.54-29.9 97.14-29.9 97.14-34.9 123.59-34.9 123.59-29.9Z" opacity="1" transform="matrix(1,0,0,1,0,0)" fill="#000000" class="undefined-text-0" data-fill-palette-color="quaternary" id="text-0"></path></svg></g></svg></g><g transform="matrix(1,0,0,1,0,83.31297295020956)"><svg viewBox="0 0 230.4 21.28156555772994" height="21.28156555772994" width="230.4"><g transform="matrix(1,0,0,1,0,0)"><svg width="230.4" viewBox="4.300000190734863 -37.20000076293945 510.95001220703125 47.20000076293945" height="21.28156555772994" data-palette-color="#ffffff"><path d="M31 0L31-26.7 30.75-26.7 28-21.05 20.35-7.1 12.7-21.05 9.95-26.7 9.7-26.7 9.7 0 4.3 0 4.3-34.9 11-34.9 20.35-17.15 20.65-17.15 30-34.9 36.4-34.9 36.4 0 31 0ZM55.35-10.7L60.55-26 65.8-26 54.85 5.15Q54.4 6.45 53.82 7.38 53.25 8.3 52.47 8.88 51.7 9.45 50.6 9.73 49.5 10 48 10L48 10 44.85 10 44.85 5.55 49.25 5.55 50.75 1.15 41.3-26 46.75-26 51.95-10.7 53.45-5.05 53.7-5.05 55.35-10.7ZM88.14 0L82.49 0 82.49-34.9 104.29-34.9 104.29-29.9 88.14-29.9 88.14-20.2 102.49-20.2 102.49-15.2 88.14-15.2 88.14 0ZM114.84 0L109.39 0 109.39-26 114.84-26 114.84-21 115.09-21Q115.64-23 117.39-24.5 119.14-26 122.24-26L122.24-26 123.69-26 123.69-20.75 121.54-20.75Q118.29-20.75 116.57-19.7 114.84-18.65 114.84-16.6L114.84-16.6 114.84 0ZM131.29-30.65L131.29-30.65Q129.59-30.65 128.81-31.45 128.04-32.25 128.04-33.5L128.04-33.5 128.04-34.35Q128.04-35.6 128.81-36.4 129.59-37.2 131.29-37.2L131.29-37.2Q132.99-37.2 133.74-36.4 134.49-35.6 134.49-34.35L134.49-34.35 134.49-33.5Q134.49-32.25 133.74-31.45 132.99-30.65 131.29-30.65ZM128.54 0L128.54-26 133.99-26 133.99 0 128.54 0ZM151.99 0.6L151.99 0.6Q149.19 0.6 146.99-0.35 144.79-1.3 143.24-3.08 141.69-4.85 140.86-7.38 140.04-9.9 140.04-13L140.04-13Q140.04-16.1 140.86-18.63 141.69-21.15 143.24-22.93 144.79-24.7 146.99-25.65 149.19-26.6 151.99-26.6L151.99-26.6Q154.84-26.6 157.01-25.6 159.19-24.6 160.64-22.83 162.09-21.05 162.81-18.7 163.54-16.35 163.54-13.65L163.54-13.65 163.54-11.6 145.69-11.6 145.69-10.75Q145.69-7.75 147.46-5.83 149.24-3.9 152.54-3.9L152.54-3.9Q154.94-3.9 156.59-4.95 158.24-6 159.39-7.8L159.39-7.8 162.59-4.65Q161.14-2.25 158.39-0.83 155.64 0.6 151.99 0.6ZM151.99-22.35L151.99-22.35Q150.59-22.35 149.41-21.85 148.24-21.35 147.41-20.45 146.59-19.55 146.14-18.3 145.69-17.05 145.69-15.55L145.69-15.55 145.69-15.2 157.79-15.2 157.79-15.7Q157.79-18.7 156.24-20.53 154.69-22.35 151.99-22.35ZM175.03 0L169.58 0 169.58-26 175.03-26 175.03-21.7 175.28-21.7Q176.13-23.8 177.86-25.2 179.58-26.6 182.58-26.6L182.58-26.6Q186.58-26.6 188.81-23.98 191.03-21.35 191.03-16.5L191.03-16.5 191.03 0 185.58 0 185.58-15.8Q185.58-21.9 180.68-21.9L180.68-21.9Q179.63-21.9 178.61-21.63 177.58-21.35 176.78-20.8 175.98-20.25 175.51-19.4 175.03-18.55 175.03-17.4L175.03-17.4 175.03 0ZM214.93 0L214.93-4.3 214.68-4.3Q213.83-2 211.91-0.7 209.98 0.6 207.38 0.6L207.38 0.6Q202.43 0.6 199.73-2.98 197.03-6.55 197.03-13L197.03-13Q197.03-19.45 199.73-23.03 202.43-26.6 207.38-26.6L207.38-26.6Q209.98-26.6 211.91-25.33 213.83-24.05 214.68-21.7L214.68-21.7 214.93-21.7 214.93-37 220.38-37 220.38 0 214.93 0ZM209.03-4.1L209.03-4.1Q211.53-4.1 213.23-5.33 214.93-6.55 214.93-8.55L214.93-8.55 214.93-17.45Q214.93-19.45 213.23-20.68 211.53-21.9 209.03-21.9L209.03-21.9Q206.18-21.9 204.48-20.08 202.78-18.25 202.78-15.25L202.78-15.25 202.78-10.75Q202.78-7.75 204.48-5.93 206.18-4.1 209.03-4.1ZM262.08 0L259.03 0Q256.88 0 255.73-1.23 254.58-2.45 254.33-4.35L254.33-4.35 254.08-4.35Q253.33-1.9 251.33-0.65 249.33 0.6 246.48 0.6L246.48 0.6Q242.43 0.6 240.25-1.5 238.08-3.6 238.08-7.15L238.08-7.15Q238.08-11.05 240.9-13 243.73-14.95 249.18-14.95L249.18-14.95 253.88-14.95 253.88-17.15Q253.88-19.55 252.58-20.85 251.28-22.15 248.53-22.15L248.53-22.15Q246.23-22.15 244.78-21.15 243.33-20.15 242.33-18.6L242.33-18.6 239.08-21.55Q240.38-23.75 242.73-25.18 245.08-26.6 248.88-26.6L248.88-26.6Q253.93-26.6 256.63-24.25 259.33-21.9 259.33-17.5L259.33-17.5 259.33-4.45 262.08-4.45 262.08 0ZM248.03-3.55L248.03-3.55Q250.58-3.55 252.23-4.67 253.88-5.8 253.88-7.7L253.88-7.7 253.88-11.45 249.28-11.45Q243.63-11.45 243.63-7.95L243.63-7.95 243.63-7.05Q243.63-5.3 244.8-4.42 245.98-3.55 248.03-3.55ZM272.87 0L267.42 0 267.42-26 272.87-26 272.87-21.7 273.12-21.7Q273.97-23.8 275.7-25.2 277.42-26.6 280.42-26.6L280.42-26.6Q284.42-26.6 286.65-23.98 288.87-21.35 288.87-16.5L288.87-16.5 288.87 0 283.42 0 283.42-15.8Q283.42-21.9 278.52-21.9L278.52-21.9Q277.47-21.9 276.45-21.63 275.42-21.35 274.62-20.8 273.82-20.25 273.35-19.4 272.87-18.55 272.87-17.4L272.87-17.4 272.87 0ZM312.77 0L312.77-4.3 312.52-4.3Q311.67-2 309.75-0.7 307.82 0.6 305.22 0.6L305.22 0.6Q300.27 0.6 297.57-2.98 294.87-6.55 294.87-13L294.87-13Q294.87-19.45 297.57-23.03 300.27-26.6 305.22-26.6L305.22-26.6Q307.82-26.6 309.75-25.33 311.67-24.05 312.52-21.7L312.52-21.7 312.77-21.7 312.77-37 318.22-37 318.22 0 312.77 0ZM306.87-4.1L306.87-4.1Q309.37-4.1 311.07-5.33 312.77-6.55 312.77-8.55L312.77-8.55 312.77-17.45Q312.77-19.45 311.07-20.68 309.37-21.9 306.87-21.9L306.87-21.9Q304.02-21.9 302.32-20.08 300.62-18.25 300.62-15.25L300.62-15.25 300.62-10.75Q300.62-7.75 302.32-5.93 304.02-4.1 306.87-4.1ZM361.57-29.9L351.17-29.9 351.17 0 345.52 0 345.52-29.9 335.12-29.9 335.12-34.9 361.57-34.9 361.57-29.9ZM373.61 0.6L373.61 0.6Q370.81 0.6 368.61-0.35 366.41-1.3 364.86-3.08 363.31-4.85 362.49-7.38 361.66-9.9 361.66-13L361.66-13Q361.66-16.1 362.49-18.63 363.31-21.15 364.86-22.93 366.41-24.7 368.61-25.65 370.81-26.6 373.61-26.6L373.61-26.6Q376.46-26.6 378.64-25.6 380.81-24.6 382.26-22.83 383.71-21.05 384.44-18.7 385.16-16.35 385.16-13.65L385.16-13.65 385.16-11.6 367.31-11.6 367.31-10.75Q367.31-7.75 369.09-5.83 370.86-3.9 374.16-3.9L374.16-3.9Q376.56-3.9 378.21-4.95 379.86-6 381.01-7.8L381.01-7.8 384.21-4.65Q382.76-2.25 380.01-0.83 377.26 0.6 373.61 0.6ZM373.61-22.35L373.61-22.35Q372.21-22.35 371.04-21.85 369.86-21.35 369.04-20.45 368.21-19.55 367.76-18.3 367.31-17.05 367.31-15.55L367.31-15.55 367.31-15.2 379.41-15.2 379.41-15.7Q379.41-18.7 377.86-20.53 376.31-22.35 373.61-22.35ZM413.31 0L410.26 0Q408.11 0 406.96-1.23 405.81-2.45 405.56-4.35L405.56-4.35 405.31-4.35Q404.56-1.9 402.56-0.65 400.56 0.6 397.71 0.6L397.71 0.6Q393.66 0.6 391.49-1.5 389.31-3.6 389.31-7.15L389.31-7.15Q389.31-11.05 392.14-13 394.96-14.95 400.41-14.95L400.41-14.95 405.11-14.95 405.11-17.15Q405.11-19.55 403.81-20.85 402.51-22.15 399.76-22.15L399.76-22.15Q397.46-22.15 396.01-21.15 394.56-20.15 393.56-18.6L393.56-18.6 390.31-21.55Q391.61-23.75 393.96-25.18 396.31-26.6 400.11-26.6L400.11-26.6Q405.16-26.6 407.86-24.25 410.56-21.9 410.56-17.5L410.56-17.5 410.56-4.45 413.31-4.45 413.31 0ZM399.26-3.55L399.26-3.55Q401.81-3.55 403.46-4.67 405.11-5.8 405.11-7.7L405.11-7.7 405.11-11.45 400.51-11.45Q394.86-11.45 394.86-7.95L394.86-7.95 394.86-7.05Q394.86-5.3 396.04-4.42 397.21-3.55 399.26-3.55ZM428.71 0.6L428.71 0.6Q425.91 0.6 423.71-0.35 421.51-1.3 420.01-3.08 418.51-4.85 417.71-7.38 416.91-9.9 416.91-13L416.91-13Q416.91-16.1 417.71-18.63 418.51-21.15 420.01-22.93 421.51-24.7 423.71-25.65 425.91-26.6 428.71-26.6L428.71-26.6Q432.61-26.6 435.11-24.85 437.61-23.1 438.76-20.2L438.76-20.2 434.26-18.1Q433.71-19.9 432.33-20.98 430.96-22.05 428.71-22.05L428.71-22.05Q425.71-22.05 424.18-20.18 422.66-18.3 422.66-15.3L422.66-15.3 422.66-10.65Q422.66-7.65 424.18-5.78 425.71-3.9 428.71-3.9L428.71-3.9Q431.11-3.9 432.53-5.08 433.96-6.25 434.81-8.2L434.81-8.2 438.96-6Q437.66-2.8 435.06-1.1 432.46 0.6 428.71 0.6ZM444.16 0L444.16-37 449.61-37 449.61-21.7 449.86-21.7Q450.71-23.8 452.43-25.2 454.16-26.6 457.16-26.6L457.16-26.6Q461.16-26.6 463.38-23.98 465.61-21.35 465.61-16.5L465.61-16.5 465.61 0 460.16 0 460.16-15.85Q460.16-21.9 455.26-21.9L455.26-21.9Q454.21-21.9 453.18-21.63 452.16-21.35 451.36-20.8 450.56-20.25 450.08-19.4 449.61-18.55 449.61-17.45L449.61-17.45 449.61 0 444.16 0ZM483.35 0.6L483.35 0.6Q480.55 0.6 478.35-0.35 476.15-1.3 474.6-3.08 473.05-4.85 472.23-7.38 471.4-9.9 471.4-13L471.4-13Q471.4-16.1 472.23-18.63 473.05-21.15 474.6-22.93 476.15-24.7 478.35-25.65 480.55-26.6 483.35-26.6L483.35-26.6Q486.2-26.6 488.38-25.6 490.55-24.6 492-22.83 493.45-21.05 494.18-18.7 494.9-16.35 494.9-13.65L494.9-13.65 494.9-11.6 477.05-11.6 477.05-10.75Q477.05-7.75 478.83-5.83 480.6-3.9 483.9-3.9L483.9-3.9Q486.3-3.9 487.95-4.95 489.6-6 490.75-7.8L490.75-7.8 493.95-4.65Q492.5-2.25 489.75-0.83 487 0.6 483.35 0.6ZM483.35-22.35L483.35-22.35Q481.95-22.35 480.78-21.85 479.6-21.35 478.78-20.45 477.95-19.55 477.5-18.3 477.05-17.05 477.05-15.55L477.05-15.55 477.05-15.2 489.15-15.2 489.15-15.7Q489.15-18.7 487.6-20.53 486.05-22.35 483.35-22.35ZM506.4 0L500.95 0 500.95-26 506.4-26 506.4-21 506.65-21Q507.2-23 508.95-24.5 510.7-26 513.8-26L513.8-26 515.25-26 515.25-20.75 513.1-20.75Q509.85-20.75 508.13-19.7 506.4-18.65 506.4-16.6L506.4-16.6 506.4 0Z" opacity="1" transform="matrix(1,0,0,1,0,0)" fill="#000000" class="undefined-text-1" data-fill-palette-color="quaternary" id="text-1"></path></svg></g></svg></g></svg></g></svg></g></svg></g></svg></g></svg></g></svg></g><defs></defs></svg><rect width="512" height="320" fill="none" stroke="none" visibility="hidden"></rect></g></svg></g></svg>